<?xml version="1.0" encoding="utf-8"?>
<!-- Generator: Adobe Illustrator 28.1.0, SVG Export Plug-In . SVG Version: 6.00 Build 0)  -->
<svg version="1.1" id="wordmark" xmlns="http://www.w3.org/2000/svg" xmlns:xlink="http://www.w3.org/1999/xlink" x="0px" y="0px"
	 viewBox="0 0 1735.4 120.3" style="enable-background:new 0 0 1735.4 120.3;" xml:space="preserve">
<g>
	<path d="M44.7,117.7H0V3h110.5c8,0,15.2,1.9,21.8,5.8c6.6,3.9,11.8,9.1,15.7,15.7c3.9,6.5,5.8,13.8,5.8,21.8c0,8-1.9,15.2-5.8,21.8
		c-3.9,6.6-9.1,11.8-15.7,15.7c-6.6,3.9-13.8,5.8-21.8,5.8H44.7V117.7z M99.3,56.1c2.7,0,5-1,6.9-2.9c1.9-1.9,2.9-4.2,2.9-6.9
		c0-2.7-1-5-2.9-7c-1.9-1.9-4.2-2.9-6.9-2.9H44.7v19.5H99.3z"/>
	<path d="M277.8,2.8h44.8v61.6c0,10.8-2,19.8-6.1,27c-4.1,7.2-9.7,12.9-16.9,17.1c-7.2,4.2-15.5,7.3-25,9
		c-9.5,1.8-19.6,2.7-30.4,2.7c-10.8,0-20.9-0.9-30.4-2.7c-9.5-1.8-17.8-4.8-25-9c-7.2-4.2-12.8-10-16.9-17.1
		c-4.1-7.2-6.1-16.2-6.1-27V2.8h44.7v58.8c0,6.2,1.5,10.9,4.6,14.1c3,3.2,7.1,5.4,12.2,6.5c5.1,1.1,10.7,1.7,16.9,1.7
		c6.1,0,11.8-0.6,16.9-1.7c5.1-1.1,9.1-3.3,12.2-6.5c3-3.2,4.5-7.9,4.5-14.1V2.8z"/>
	<path d="M460.2,117.7H342.7V3h109c6.7,0,12.8,1.2,18.3,3.5c5.5,2.3,9.9,5.8,13.2,10.4c3.3,4.6,4.9,10.2,4.9,16.9
		c0,5.5-1.2,10.4-3.6,14.5c-2.4,4.2-5.6,7.5-9.7,10.2c6.5,2.1,11.7,5.6,15.7,10.4c4,4.8,6,10.9,6,18.1c0,6.7-1.6,12.3-4.9,16.9
		c-3.3,4.6-7.7,8-13.2,10.4C473,116.5,466.9,117.7,460.2,117.7z M439.3,45.6c1.9,0,3.6-0.8,4.9-2.4c1.4-1.6,2-3.4,2-5.3
		c0-1.9-0.7-3.7-2-5.3c-1.4-1.6-3-2.4-4.9-2.4h-51.8v15.4H439.3z M447.6,90.4c1.9,0,3.6-0.8,4.9-2.4c1.4-1.6,2-3.4,2-5.3
		c0-1.9-0.7-3.7-2-5.3c-1.4-1.6-3-2.4-4.9-2.4h-60.2v15.4H447.6z"/>
	<path d="M642.8,117.5H508.5V2.8h44.7v78.3h89.5V117.5z"/>
	<path d="M702.6,117.5h-44.7V2.8h44.7V117.5z"/>
	<path d="M826.3,70h45.8c-0.8,9.6-3.3,17.7-7.6,24.2c-4.3,6.5-9.9,11.7-17,15.5c-7.1,3.8-15.1,6.6-24.3,8.2
		c-9.1,1.6-18.9,2.4-29.2,2.4c-10.8,0-20.9-0.9-30.4-2.7c-9.5-1.8-17.8-4.8-25-9c-7.2-4.2-12.8-10-16.9-17.2
		c-4.1-7.2-6.1-16.2-6.1-27V56c0-10.8,2-19.8,6.1-27c4.1-7.2,9.7-12.9,16.9-17.2c7.2-4.2,15.5-7.3,25-9.1C773.1,0.9,783.2,0,794,0
		c10.4,0,20.1,0.8,29.2,2.5c9.1,1.7,17.2,4.4,24.3,8.2c7.1,3.8,12.7,9,17,15.5c4.3,6.5,6.8,14.5,7.6,24.1h-45.8
		c-1.4-3.7-3.6-6.6-6.7-8.6c-3.1-2-6.9-3.4-11.3-4.2c-4.4-0.7-9.1-1.1-14.2-1.1c-6.1,0-11.8,0.6-16.9,1.7c-5.1,1.1-9.1,3.3-12.2,6.5
		c-3,3.2-4.5,7.9-4.5,14.1v2.8c0,6.1,1.5,10.8,4.5,14c3,3.2,7.1,5.4,12.2,6.6c5.1,1.2,10.7,1.7,16.9,1.7c5.1,0,9.9-0.4,14.2-1.2
		c4.4-0.8,8.1-2.2,11.3-4.2C822.7,76.6,824.9,73.7,826.3,70z"/>
	<path d="M1007.7,40.6c0,1.7,1.4,2.9,4.2,3.8c2.8,0.9,6.6,1.5,11.4,1.8c4.8,0.4,10.2,0.7,16.3,1c6.5,0.3,13.3,0.7,20.3,1.2
		c7.1,0.5,13.9,1.4,20.6,2.6c6.7,1.2,12.7,3,18.1,5.3c5.4,2.3,9.7,5.3,13,9.1c3.2,3.8,4.9,8.5,4.9,14.3c0,6.5-1.4,12.1-4.2,16.8
		c-2.8,4.7-6.7,8.5-11.6,11.6c-4.9,3.1-10.7,5.5-17.2,7.3c-6.5,1.8-13.6,3-21.2,3.8c-7.6,0.7-15.5,1.1-23.5,1.1
		c-10.1,0-19.6-0.5-28.5-1.4c-8.9-0.9-16.9-2.8-23.9-5.5c-7-2.8-12.7-6.9-17.1-12.3c-4.4-5.4-7.2-12.5-8.3-21.3h46.8
		c1.7,3,4.1,5.2,7.2,6.9c3.1,1.6,6.6,2.7,10.7,3.4c4.1,0.6,8.4,0.9,13.1,0.9c3.5,0,7-0.2,10.7-0.5c3.6-0.3,7-0.9,10.1-1.7
		c3.1-0.8,5.5-2,7.4-3.4s2.8-3.3,2.8-5.5c0-1.7-1.4-3-4.2-3.8c-2.8-0.8-6.6-1.4-11.4-1.8c-4.8-0.4-10.2-0.7-16.3-1
		c-6.5-0.3-13.3-0.7-20.3-1.2c-7.1-0.5-13.9-1.4-20.6-2.6c-6.7-1.2-12.7-3-18.1-5.3c-5.4-2.3-9.7-5.3-13-9.1s-4.9-8.5-4.9-14.2
		c0-6.6,1.4-12.2,4.2-16.9c2.8-4.6,6.7-8.5,11.6-11.6c4.9-3.1,10.7-5.5,17.2-7.3c6.5-1.8,13.6-3,21.2-3.8c7.6-0.7,15.5-1.1,23.5-1.1
		c10.1,0,19.6,0.5,28.5,1.4c8.9,0.9,16.9,2.8,23.9,5.5c7,2.8,12.7,6.8,17.1,12.2c4.4,5.4,7.2,12.5,8.3,21.4h-46.8
		c-1.7-3-4.1-5.3-7.2-7c-3.1-1.6-6.6-2.7-10.7-3.3c-4.1-0.6-8.4-0.9-13.1-0.9c-3.5,0-7,0.2-10.7,0.5c-3.6,0.3-7,0.9-10.1,1.7
		c-3.1,0.8-5.5,2-7.4,3.4C1008.6,36.5,1007.7,38.3,1007.7,40.6z"/>
	<path d="M1173.1,117.7h-44.7V3h110.5c8,0,15.2,1.9,21.8,5.8c6.6,3.9,11.8,9.1,15.7,15.7c3.9,6.5,5.8,13.8,5.8,21.8
		c0,8-1.9,15.2-5.8,21.8c-3.9,6.6-9.1,11.8-15.7,15.7c-6.6,3.9-13.8,5.8-21.8,5.8h-65.8V117.7z M1227.7,56.1c2.7,0,5-1,6.9-2.9
		c1.9-1.9,2.9-4.2,2.9-6.9c0-2.7-1-5-2.9-7c-1.9-1.9-4.2-2.9-6.9-2.9h-54.6v19.5H1227.7z"/>
	<path d="M1438.8,117.7h-50.3l-9-19.6H1322l-9,19.6h-50.3L1324.2,3h53.2L1438.8,117.7z M1366.5,70.1l-15.7-33.9L1335,70.1H1366.5z"
		/>
	<path d="M1542.1,70h45.8c-0.8,9.6-3.3,17.7-7.6,24.2c-4.3,6.5-9.9,11.7-17,15.5c-7.1,3.8-15.1,6.6-24.3,8.2
		c-9.1,1.6-18.9,2.4-29.2,2.4c-10.8,0-20.9-0.9-30.4-2.7c-9.5-1.8-17.8-4.8-25-9c-7.2-4.2-12.8-10-16.9-17.2
		c-4.1-7.2-6.1-16.2-6.1-27V56c0-10.8,2-19.8,6.1-27c4.1-7.2,9.7-12.9,16.9-17.2c7.2-4.2,15.5-7.3,25-9.1c9.5-1.8,19.6-2.7,30.4-2.7
		c10.4,0,20.1,0.8,29.2,2.5c9.1,1.7,17.2,4.4,24.3,8.2c7.1,3.8,12.7,9,17,15.5c4.3,6.5,6.8,14.5,7.6,24.1h-45.8
		c-1.4-3.7-3.6-6.6-6.7-8.6c-3.1-2-6.9-3.4-11.3-4.2c-4.4-0.7-9.1-1.1-14.2-1.1c-6.1,0-11.8,0.6-16.9,1.7c-5.1,1.1-9.1,3.3-12.2,6.5
		c-3,3.2-4.5,7.9-4.5,14.1v2.8c0,6.1,1.5,10.8,4.5,14c3,3.2,7.1,5.4,12.2,6.6c5.1,1.2,10.7,1.7,16.9,1.7c5.1,0,9.9-0.4,14.2-1.2
		c4.4-0.8,8.1-2.2,11.3-4.2C1538.5,76.6,1540.7,73.7,1542.1,70z"/>
	<path d="M1735.4,117.7h-134.2V3h134.2v29.4h-89.5V47h89.5v26.5h-89.5v14.7h89.5V117.7z"/>
</g>
</svg>
